<?xml version="1.0" standalone="no"?>
<!DOCTYPE svg PUBLIC "-//W3C//DTD SVG 20010904//EN"
 "http://www.w3.org/TR/2001/REC-SVG-20010904/DTD/svg10.dtd">
<svg version="1.0" xmlns="http://www.w3.org/2000/svg"
 width="256.000000pt" height="256.000000pt" viewBox="0 0 256.000000 256.000000"
 preserveAspectRatio="xMidYMid meet">
<metadata>
Created by potrace 1.15, written by Peter Selinger 2001-2017
</metadata>
<g transform="translate(0.000000,256.000000) scale(0.100000,-0.100000)"
fill="#000000" stroke="none">
<path d="M1465 1668 c-30 -17 -44 -40 -45 -71 0 -38 25 -74 58 -80 l27 -5 -5
-174 c-5 -163 -7 -177 -34 -238 -33 -76 -67 -158 -135 -330 -27 -69 -56 -141
-64 -160 -24 -60 -30 -75 -31 -80 -1 -3 -18 -48 -39 -100 -72 -177 -77 -193
-77 -226 0 -78 52 -141 149 -179 l66 -26 385 3 385 3 58 28 c32 16 69 44 85
64 24 32 27 45 27 108 0 40 -5 83 -12 96 -10 22 -27 66 -115 294 -17 44 -34
89 -39 100 -13 31 -49 126 -66 170 -8 22 -23 60 -33 85 -59 146 -92 241 -86
247 3 3 6 1 6 -5 0 -6 24 -25 53 -42 66 -38 138 -41 203 -8 24 12 44 25 44 30
0 18 -32 70 -67 108 -53 60 -107 83 -181 78 l-62 -3 0 73 c0 50 -4 72 -12 73
-7 0 -1 6 14 12 73 33 89 88 39 138 l-29 29 -224 0 c-149 -1 -230 -4 -243 -12z
m388 -698 c47 -37 48 -120 2 -166 -31 -31 -66 -30 -103 1 -37 31 -48 73 -32
120 21 63 83 84 133 45z m-243 -102 c28 -47 26 -84 -9 -119 -36 -35 -64 -37
-96 -4 -19 18 -25 35 -25 66 0 55 30 89 77 89 27 0 37 -6 53 -32z m353 -246
c44 -11 83 -24 87 -28 12 -12 127 -296 135 -332 9 -43 -20 -106 -63 -136 -64
-43 -105 -47 -442 -44 -315 3 -315 3 -364 28 -60 31 -86 64 -93 116 -4 33 4
63 47 165 29 68 59 142 68 164 9 22 21 43 26 47 9 6 96 27 176 42 63 12 347
-3 423 -22z"/>
<path d="M1460 523 c-25 -13 -36 -26 -38 -46 -3 -23 2 -30 32 -42 45 -19 79
-19 115 0 65 33 44 85 -40 100 -23 4 -45 0 -69 -12z"/>
<path d="M1810 523 c-28 -15 -35 -24 -35 -48 0 -26 5 -32 42 -44 50 -18 116
-3 134 31 9 17 7 24 -12 44 -34 32 -86 39 -129 17z"/>
<path d="M1320 1334 c-51 -29 -76 -53 -108 -105 -32 -53 -29 -67 24 -91 67
-29 149 -22 207 18 l42 30 3 87 3 87 -63 0 c-49 0 -73 -6 -108 -26z"/>
</g>
</svg>
